<?xml version="1.0" encoding="UTF-8"?>
		<svg xmlns="http://www.w3.org/2000/svg"  preserveAspectRatio="none" width="40" height="20">
			<style>
				* {
					vector-effect: non-scaling-stroke;
				}

				.sparkline {
					stroke-width: 2;
					fill: transparent;
					stroke: black;
				}

			

			</style>
				<path class="sparkline-fill" style="fill:#e1e1e1;" d="M 0 2L 2.857142857142857 2.173935510606128L 5.714285714285714 2.1497058996507263L 8.571428571428571 2.157377484920726L 11.428571428571429 2.8549693067847493L 14.285714285714286 2.9935527826300223L 17.142857142857142 2.918321752885447L 20 3.3728920516907905L 22.857142857142858 3.8694773407920806L 25.714285714285715 3.9443562009895246L 28.571428571428573 4.0203406409003986L 31.42857142857143 4.333514549261462L 34.285714285714285 4.39080396829393L 37.142857142857146 4.864033542239868L 40 5.475203168750372L 40 20 L 0 20"></path>
				<path class="sparkline" style="stroke:#555555;" d="M 0 2L 2.857142857142857 2.173935510606128L 5.714285714285714 2.1497058996507263L 8.571428571428571 2.157377484920726L 11.428571428571429 2.8549693067847493L 14.285714285714286 2.9935527826300223L 17.142857142857142 2.918321752885447L 20 3.3728920516907905L 22.857142857142858 3.8694773407920806L 25.714285714285715 3.9443562009895246L 28.571428571428573 4.0203406409003986L 31.42857142857143 4.333514549261462L 34.285714285714285 4.39080396829393L 37.142857142857146 4.864033542239868L 40 5.475203168750372"></path>
		</svg>