<?xml version="1.0" encoding="UTF-8"?>
		<svg xmlns="http://www.w3.org/2000/svg"  preserveAspectRatio="none" width="40" height="20">
			<style>
				* {
					vector-effect: non-scaling-stroke;
				}

				.sparkline {
					stroke-width: 2;
					fill: transparent;
					stroke: black;
				}

			

			</style>
				<path class="sparkline-fill" style="fill:#efc9c9;" d="M 0 2L 2.857142857142857 2.9347569060458554L 5.714285714285714 3.8339719363788767L 8.571428571428571 5.405823172875568L 11.428571428571429 6.708339694727684L 14.285714285714286 7.322833284448265L 17.142857142857142 7.612000345468584L 20 9.008414694071309L 22.857142857142858 10.051944031555054L 25.714285714285715 11.200178984824937L 28.571428571428573 11.913867670749855L 31.42857142857143 12.303425734917905L 34.285714285714285 12.483215526996918L 37.142857142857146 12.721018701549143L 40 13.683577663668032L 40 20 L 0 20"></path>
				<path class="sparkline" style="stroke:#cf1111;" d="M 0 2L 2.857142857142857 2.9347569060458554L 5.714285714285714 3.8339719363788767L 8.571428571428571 5.405823172875568L 11.428571428571429 6.708339694727684L 14.285714285714286 7.322833284448265L 17.142857142857142 7.612000345468584L 20 9.008414694071309L 22.857142857142858 10.051944031555054L 25.714285714285715 11.200178984824937L 28.571428571428573 11.913867670749855L 31.42857142857143 12.303425734917905L 34.285714285714285 12.483215526996918L 37.142857142857146 12.721018701549143L 40 13.683577663668032"></path>
		</svg>